<svg xmlns="http://www.w3.org/2000/svg" xmlns:xlink="http://www.w3.org/1999/xlink" viewBox="0 0 245.62 245.49"><defs><style>.cls-1{isolation:isolate;}.cls-2{fill:#fffac2;}.cls-3{fill:#905501;}.cls-4{fill:#939598;}.cls-12,.cls-4{mix-blend-mode:multiply;}.cls-5{fill:#fdc88e;}.cls-6{fill:#540000;}.cls-20,.cls-7{fill:#ffcb05;}.cls-8{fill:#a3620a;}.cls-9{fill:#5e4851;}.cls-10,.cls-12{fill:#e0e1e2;}.cls-10,.cls-14{opacity:0.15;}.cls-11{fill:#231f20;}.cls-13,.cls-14{fill:#fff;}.cls-13{opacity:0.25;}.cls-15{fill:#ed1c24;}.cls-16{fill:url(#radial-gradient);}.cls-17{fill:#74362b;}.cls-18{fill:#4a100b;}.cls-19{fill:#5c271d;}.cls-20{stroke:#a3620a;stroke-miterlimit:10;stroke-width:3.5px;}</style><radialGradient id="radial-gradient" cx="181.98" cy="97.54" r="17.17" gradientUnits="userSpaceOnUse"><stop offset="0" stop-color="#5e4851"/><stop offset="0.05" stop-color="#614c55"/><stop offset="0.77" stop-color="#847880"/><stop offset="0.79" stop-color="#7e7078"/><stop offset="0.86" stop-color="#6c5a62"/><stop offset="0.94" stop-color="#624d55"/><stop offset="1" stop-color="#5e4851"/></radialGradient></defs><title>logo-outline</title><g class="cls-1"><g id="Layer_1" data-name="Layer 1"><polyline class="cls-2" points="63.34 99.89 61.8 107.4 65.46 109.44 81.1 101.99"/><path class="cls-3" d="M122.65,167.36a.62.62,0,0,1-.32-.09l-3.67-2a.66.66,0,0,1-.32-.71l1.54-7.51a.66.66,0,0,1,1.3.27l-1.45,7,2.94,1.64,15.33-7.3a.66.66,0,1,1,.57,1.19l-15.64,7.45A.55.55,0,0,1,122.65,167.36Z" transform="translate(-57.19 -57.26)"/><polygon class="cls-4" points="125.62 211.15 126.79 208.21 126.5 58.33 124.66 58.33 125.62 211.15"/><path class="cls-5" d="M226.2,148.05s9.49-5.63,17.44,8.84c1.44,2.32,6,7.73,15.57,5.74l-4.19,7,8.06,12.92s-13.7,3.54-21.65-4.41c0,0,3.87-14,1.33-18.44S230.06,151.48,226.2,148.05Z" transform="translate(-57.19 -57.26)"/><path class="cls-3" d="M256,184c-4.66,0-10.62-1-15-5.42a.63.63,0,0,1-.17-.64c1-3.83,3.35-14.51,1.38-17.93-1.44-2.52-5.82-5-9.67-7.14a41.91,41.91,0,0,1-6.75-4.29.66.66,0,0,1-.22-.56.68.68,0,0,1,.32-.51,10.63,10.63,0,0,1,7.77-.78c4,1.11,7.6,4.42,10.59,9.87,1.39,2.24,5.65,7.31,14.86,5.41a.65.65,0,0,1,.67.27.67.67,0,0,1,0,.72l-4,6.61,7.85,12.57a.67.67,0,0,1,.05.6.65.65,0,0,1-.45.39A31.25,31.25,0,0,1,256,184Zm-13.8-6.09c6.46,6.14,16.76,4.76,19.84,4.17l-7.56-12.11a.68.68,0,0,1,0-.7l3.44-5.71c-9.3,1.29-13.66-4.43-14.81-6.29-2.83-5.15-6.12-8.25-9.8-9.26a9.59,9.59,0,0,0-5.83.24,58.85,58.85,0,0,0,5.7,3.47c4.21,2.35,8.55,4.79,10.18,7.63C245.77,163.55,242.79,175.54,242.17,177.88Z" transform="translate(-57.19 -57.26)"/><path class="cls-5" d="M129.81,177.31s4.3,6.19-3.54,3.87-13.58-11.82-15-12.81-6-3.86-14.14-2.54l8.17-8.72-11-8.28s11-6.85,20.21-1.22c1.88,1.33.55,6.3,0,8.95,0,0-1.55,9.38-.11,11.26C114.35,167.82,126.27,173.23,129.81,177.31Z" transform="translate(-57.19 -57.26)"/><path class="cls-3" d="M129.14,182.36a11.22,11.22,0,0,1-3-.55c-6.12-1.8-11-7.78-13.55-11a16.72,16.72,0,0,0-1.66-1.91c-3.56-2.46-8.28-3.3-13.65-2.43a.65.65,0,0,1-.69-.34.67.67,0,0,1,.1-.76l7.67-8.19-10.45-7.83a.65.65,0,0,1-.27-.56.69.69,0,0,1,.31-.54c.47-.28,11.5-7,20.91-1.21,2.08,1.47,1.16,5.7.48,8.79-.07.3-.13.59-.18.85-.6,3.64-1.07,9.22-.31,10.6,1.55.72,12.11,5.67,15.51,9.59l0,.05c.35.5,2,3.07.94,4.57A2.48,2.48,0,0,1,129.14,182.36Zm-27.91-17.53a18,18,0,0,1,10.4,3,12.65,12.65,0,0,1,2,2.16c2.5,3.1,7.16,8.86,12.88,10.55,3,.88,3.63.36,3.76.18.37-.52-.3-2.07-.94-3-3.43-3.93-15.09-9.25-15.21-9.3a.67.67,0,0,1-.25-.2c-1.53-2-.28-10.16,0-11.77.06-.3.12-.58.19-.89.49-2.26,1.41-6.47.08-7.41-7.25-4.45-15.89-.66-18.61.76l10.22,7.67a.63.63,0,0,1,.26.47.64.64,0,0,1-.17.51l-6.91,7.38C99.67,164.86,100.46,164.83,101.23,164.83Z" transform="translate(-57.19 -57.26)"/><path class="cls-6" d="M225,151.92s4.09,7,12,7.4C237,159.32,221.78,164.06,225,151.92Z" transform="translate(-57.19 -57.26)"/><path class="cls-6" d="M95.14,172.46a18.07,18.07,0,0,1,14.57,3.09S109.49,163.62,95.14,172.46Z" transform="translate(-57.19 -57.26)"/><path class="cls-7" d="M179.93,302a122,122,0,1,1,86.25-35.72A121.17,121.17,0,0,1,179.93,302Zm0-233.34A111.37,111.37,0,1,0,291.3,180,111.5,111.5,0,0,0,179.93,68.63Z" transform="translate(-57.19 -57.26)"/><path class="cls-8" d="M179.93,302.74a122.74,122.74,0,1,1,86.8-35.95A121.91,121.91,0,0,1,179.93,302.74Zm0-243.94a121.2,121.2,0,1,0,85.7,35.5A120.42,120.42,0,0,0,179.93,58.8Zm0,233.34A112.14,112.14,0,1,1,292.08,180,112.27,112.27,0,0,1,179.93,292.14Zm0-222.74A110.6,110.6,0,1,0,290.53,180,110.73,110.73,0,0,0,179.93,69.4Z" transform="translate(-57.19 -57.26)"/><path class="cls-8" d="M217.09,297h-.16a.87.87,0,0,1-.71-1c0-.06.93-5.57-2.21-9.34a.89.89,0,0,1,.12-1.25.88.88,0,0,1,1.24.12C219,289.89,218,296,218,296.26A.89.89,0,0,1,217.09,297Z" transform="translate(-57.19 -57.26)"/><path class="cls-8" d="M223.13,294.89H223a.89.89,0,0,1-.77-1h0s.64-5.61-2.69-9.21a.88.88,0,0,1,1.3-1.2c3.89,4.21,3.18,10.37,3.15,10.63A.88.88,0,0,1,223.13,294.89Z" transform="translate(-57.19 -57.26)"/><path class="cls-8" d="M229.05,292.49H229a.89.89,0,0,1-.82-.95h0c0-.05.34-5.63-3.17-9.06a.87.87,0,0,1,0-1.24.88.88,0,0,1,1.25,0c4.11,4,3.72,10.19,3.7,10.45A.88.88,0,0,1,229.05,292.49Z" transform="translate(-57.19 -57.26)"/><path class="cls-7" d="M204.06,298.81a4.64,4.64,0,0,1-1.36-9.07c.75-.24,17.71-5.86,21.16-28.23,1.38-9-2.09-16.72-10.33-23a51.73,51.73,0,0,0-15.48-7.86l-.84-.2c-34.87-8.2-53.45-22.36-52.3-39.86.91-14,16.31-20.92,32.62-28.26,17.24-7.75,35.08-15.77,34.6-31.59-1.2-21.84-17.47-26.25-30.88-26.09h-.49a4.64,4.64,0,1,1,0-9.27h.38a48.13,48.13,0,0,1,21.06,4.08c8.21,3.85,18.2,12.31,19.19,30.83a.31.31,0,0,1,0,.1c.33,10-4.05,18.51-13.37,25.84-7.57,6-17.3,10.33-26.7,14.56-13.69,6.16-26.62,12-27.17,20.4-.5,7.74,5.69,14.84,18.4,21.11a127.27,127.27,0,0,0,26.78,9.12l1.19.29a61.09,61.09,0,0,1,18.64,9.44c11,8.4,15.77,19.4,13.86,31.81-4.37,28.32-26.67,35.39-27.62,35.68A4.85,4.85,0,0,1,204.06,298.81Z" transform="translate(-57.19 -57.26)"/><path class="cls-8" d="M206.47,299.88,206,298.4c.22-.06,22.48-8,26.83-36.22,1.87-12.11-2.82-22.86-13.56-31.08a60.26,60.26,0,0,0-18.37-9.3l-1.17-.28a128.18,128.18,0,0,1-26.94-9.19c-13-6.42-19.36-13.77-18.83-21.85.58-8.89,13.72-14.8,27.62-21,9.36-4.21,19-8.56,26.55-14.47,9.11-7.17,13.38-15.41,13.06-25.21v-.08c-1-18.13-10.73-26.41-18.75-30.17a47.28,47.28,0,0,0-20.72-4h-.39a3.87,3.87,0,1,0,0,7.73h.48c13.77-.17,30.43,4.35,31.66,26.81.49,16.36-17.58,24.49-35.06,32.35-16.08,7.23-31.28,14.07-32.16,27.6-1.12,17.08,17.25,31,51.71,39.06l.26.06c.28.07.49.11.6.15a51.87,51.87,0,0,1,15.75,8c8.48,6.49,12,14.48,10.62,23.76-3.41,22.11-21,28.28-23,28.91l-.48-1.47h0c1.9-.6,18.67-6.49,21.93-27.67,1.34-8.68-2-16.18-10-22.3a50.59,50.59,0,0,0-15.22-7.73l-.55-.14-.25-.06c-35.29-8.3-54.08-22.74-52.91-40.66.95-14.46,16.56-21.48,33.08-28.91,17-7.65,34.61-15.56,34.15-30.87-1.17-21.22-17-25.5-30.1-25.34h-.5a5.41,5.41,0,1,1,0-10.82h.37a49.07,49.07,0,0,1,21.4,4.16c8.4,3.94,18.62,12.59,19.63,31.49v.12c.34,10.31-4.13,19-13.66,26.47-7.65,6-17.42,10.41-26.86,14.66-13.47,6.06-26.2,11.78-26.72,19.74-.48,7.4,5.56,14.25,18,20.36A126.4,126.4,0,0,0,200.1,220c.61.14,1,.24,1.23.3a61.72,61.72,0,0,1,18.9,9.57c11.21,8.58,16.11,19.83,14.15,32.54-2.3,14.92-9.54,24.21-15.21,29.38A39.45,39.45,0,0,1,206.47,299.88Z" transform="translate(-57.19 -57.26)"/><path class="cls-7" d="M212.41,283.79" transform="translate(-57.19 -57.26)"/><path class="cls-8" d="M180.79,69.37a.88.88,0,0,1-.78-.47c-.13-.23-3-5.72-.88-11.05a.88.88,0,0,1,1.64.65c-1.82,4.58.77,9.52.8,9.57a.88.88,0,0,1-.37,1.19A.87.87,0,0,1,180.79,69.37Z" transform="translate(-57.19 -57.26)"/><path class="cls-8" d="M179.24,302.71a.94.94,0,0,1-.42-.11.88.88,0,0,1-.36-1.19c0-.07,2.6-5,.8-9.56a.88.88,0,0,1,1.64-.66c2.12,5.33-.76,10.82-.88,11.05A.89.89,0,0,1,179.24,302.71Z" transform="translate(-57.19 -57.26)"/><path class="cls-8" d="M174.94,69.48a.87.87,0,0,1-.75-.43c-.14-.22-3.29-5.56-1.46-11a.88.88,0,0,1,1.12-.55.9.9,0,0,1,.56,1.12c-1.57,4.64,1.26,9.46,1.29,9.51a.88.88,0,0,1-.3,1.21A.84.84,0,0,1,174.94,69.48Z" transform="translate(-57.19 -57.26)"/><path class="cls-8" d="M185.62,302.58a1,1,0,0,1-.37-.08.89.89,0,0,1-.43-1.18h0c0-.05,2.34-5.14.29-9.59a.89.89,0,0,1,1.61-.74c2.39,5.21-.19,10.84-.3,11.08A.89.89,0,0,1,185.62,302.58Z" transform="translate(-57.19 -57.26)"/><path class="cls-8" d="M169.12,69.9a.88.88,0,0,1-.73-.39c-.15-.22-3.58-5.38-2-10.9a.88.88,0,0,1,1.09-.61.89.89,0,0,1,.61,1.09c-1.33,4.72,1.76,9.38,1.79,9.43a.88.88,0,0,1-.24,1.22A.82.82,0,0,1,169.12,69.9Z" transform="translate(-57.19 -57.26)"/><path class="cls-8" d="M192,302.12a.92.92,0,0,1-.33-.06.88.88,0,0,1-.49-1.15h0c0-.06,2.07-5.26-.21-9.6a.88.88,0,0,1,1.56-.82c2.67,5.08.38,10.84.29,11.08A.89.89,0,0,1,192,302.12Z" transform="translate(-57.19 -57.26)"/><path class="cls-8" d="M163.32,70.62a.89.89,0,0,1-.71-.35c-.15-.21-3.85-5.19-2.59-10.78a.88.88,0,0,1,1.72.39c-1.08,4.78,2.25,9.28,2.28,9.32a.88.88,0,0,1-.17,1.24A.89.89,0,0,1,163.32,70.62Z" transform="translate(-57.19 -57.26)"/><path class="cls-8" d="M198.32,301.33a1,1,0,0,1-.29-.05.88.88,0,0,1-.54-1.12c0-.07,1.78-5.37-.72-9.57a.89.89,0,0,1,.31-1.21.88.88,0,0,1,1.21.31c2.93,4.92,1,10.8.87,11A.89.89,0,0,1,198.32,301.33Z" transform="translate(-57.19 -57.26)"/><path class="cls-8" d="M157.57,71.64a.86.86,0,0,1-.68-.31c-.17-.2-4.12-5-3.16-10.63a.88.88,0,0,1,1.74.3c-.82,4.83,2.74,9.15,2.77,9.19a.88.88,0,0,1-.11,1.25A.89.89,0,0,1,157.57,71.64Z" transform="translate(-57.19 -57.26)"/><path class="cls-8" d="M204.6,300.21a.67.67,0,0,1-.24,0,.88.88,0,0,1-.61-1.09h0c0-.05,1.51-5.44-1.21-9.52a.89.89,0,0,1,.25-1.23.88.88,0,0,1,1.22.25c3.18,4.77,1.52,10.74,1.44,11A.89.89,0,0,1,204.6,300.21Z" transform="translate(-57.19 -57.26)"/><path class="cls-8" d="M151.87,73a.9.9,0,0,1-.64-.28c-.18-.2-4.38-4.76-3.71-10.45a.89.89,0,0,1,1-.77.87.87,0,0,1,.77,1c-.57,4.86,3.21,9,3.25,9a.89.89,0,0,1-.65,1.49Z" transform="translate(-57.19 -57.26)"/><path class="cls-8" d="M210.82,298.76a.69.69,0,0,1-.2,0,1,1,0,0,1-.66-1.15h0c0-.06,1.22-6-1.71-10.25a1,1,0,0,1,.18-1.34.84.84,0,0,1,1.24.2c3.42,5,2.07,11.55,2,11.82A.9.9,0,0,1,210.82,298.76Z" transform="translate(-57.19 -57.26)"/><path class="cls-8" d="M146.26,74.59a.9.9,0,0,1-.61-.25c-.19-.18-4.62-4.52-4.25-10.24a.88.88,0,1,1,1.76.12c-.32,4.91,3.67,8.81,3.71,8.85a.86.86,0,0,1,0,1.24A.91.91,0,0,1,146.26,74.59Z" transform="translate(-57.19 -57.26)"/><path class="cls-8" d="M140.74,76.5a.91.91,0,0,1-.58-.22c-.2-.17-4.85-4.27-4.78-10a.89.89,0,0,1,.88-.87h0a.88.88,0,0,1,.88.89c-.06,4.92,4.13,8.61,4.17,8.65a.87.87,0,0,1,.09,1.24A.9.9,0,0,1,140.74,76.5Z" transform="translate(-57.19 -57.26)"/><path class="cls-8" d="M135.33,78.69a1,1,0,0,1-.55-.18c-.2-.16-5.06-4-5.3-9.74a.89.89,0,1,1,1.77-.07c.2,4.89,4.58,8.38,4.62,8.41a.89.89,0,0,1,.15,1.24A.85.85,0,0,1,135.33,78.69Z" transform="translate(-57.19 -57.26)"/><path class="cls-8" d="M130,81.17a.85.85,0,0,1-.5-.16c-.21-.15-5.27-3.74-5.8-9.44a.89.89,0,0,1,.8-1,.9.9,0,0,1,1,.8c.45,4.88,5,8.13,5,8.16a.88.88,0,0,1-.51,1.61Z" transform="translate(-57.19 -57.26)"/><path class="cls-8" d="M234.67,289.78h0a.88.88,0,0,1-.87-.9c0-.07,0-5.65-3.64-8.88a.89.89,0,1,1,1.17-1.33c4.31,3.79,4.24,10,4.24,10.24A.89.89,0,0,1,234.67,289.78Z" transform="translate(-57.19 -57.26)"/><path class="cls-8" d="M124.88,83.92a.9.9,0,0,1-.47-.13c-.22-.14-5.45-3.46-6.28-9.13a.88.88,0,0,1,1.74-.26c.71,4.85,5.43,7.86,5.48,7.89a.88.88,0,0,1,.28,1.21A.89.89,0,0,1,124.88,83.92Z" transform="translate(-57.19 -57.26)"/><path class="cls-8" d="M240.3,286.77a.88.88,0,0,1-.88-.85h0c0-.06-.25-5.64-4.1-8.68a.88.88,0,0,1-.14-1.24.89.89,0,0,1,1.24-.15c4.5,3.56,4.75,9.75,4.76,10a.87.87,0,0,1-.85.91Z" transform="translate(-57.19 -57.26)"/><path class="cls-8" d="M119.88,86.94a1,1,0,0,1-.43-.11c-.23-.13-5.63-3.17-6.76-8.79a.89.89,0,0,1,.7-1,.88.88,0,0,1,1,.69c1,4.83,5.83,7.56,5.88,7.59a.89.89,0,0,1-.43,1.66Z" transform="translate(-57.19 -57.26)"/><path class="cls-8" d="M245.76,283.47a.88.88,0,0,1-.88-.8c0-.09-.55-5.63-4.54-8.46a.88.88,0,0,1-.21-1.23.89.89,0,0,1,1.23-.21c4.68,3.32,5.26,9.48,5.28,9.75a.87.87,0,0,1-.8,1Z" transform="translate(-57.19 -57.26)"/><path class="cls-8" d="M115,90.21a.92.92,0,0,1-.39-.09c-.23-.11-5.79-2.87-7.2-8.42a.88.88,0,0,1,1.71-.44c1.21,4.75,6.22,7.25,6.27,7.27a.88.88,0,0,1,.4,1.18A.86.86,0,0,1,115,90.21Z" transform="translate(-57.19 -57.26)"/><path class="cls-8" d="M251.05,279.9a.88.88,0,0,1-.88-.76c0-.08-.85-5.6-5-8.21a.89.89,0,0,1-.27-1.22.87.87,0,0,1,1.21-.27c4.85,3.06,5.76,9.19,5.79,9.45a.89.89,0,0,1-.75,1Z" transform="translate(-57.19 -57.26)"/><path class="cls-8" d="M110.38,93.73a.83.83,0,0,1-.34-.07c-.25-.1-5.94-2.56-7.64-8a.88.88,0,1,1,1.68-.53c1.47,4.7,6.59,6.91,6.64,6.93a.89.89,0,0,1,.47,1.16A.88.88,0,0,1,110.38,93.73Z" transform="translate(-57.19 -57.26)"/><path class="cls-8" d="M256.13,276.05a.89.89,0,0,1-.86-.72c0-.07-1.14-5.54-5.41-7.93a.88.88,0,0,1-.33-1.2.87.87,0,0,1,1.2-.34c5,2.8,6.22,8.88,6.27,9.13a.88.88,0,0,1-.7,1Z" transform="translate(-57.19 -57.26)"/><path class="cls-8" d="M105.91,97.49a.79.79,0,0,1-.3,0c-.25-.09-6.06-2.25-8-7.62a.89.89,0,1,1,1.66-.62c1.7,4.6,6.94,6.56,7,6.58a.88.88,0,0,1-.3,1.71Z" transform="translate(-57.19 -57.26)"/><path class="cls-8" d="M261,271.93a.87.87,0,0,1-.85-.67c0-.07-1.43-5.47-5.82-7.64a.88.88,0,1,1,.79-1.58c5.14,2.54,6.68,8.54,6.74,8.8a.88.88,0,0,1-.64,1.07A.78.78,0,0,1,261,271.93Z" transform="translate(-57.19 -57.26)"/><path class="cls-8" d="M101.65,101.48a.75.75,0,0,1-.26,0c-.25-.07-6.17-1.93-8.44-7.19a.88.88,0,0,1,1.62-.7c1.94,4.5,7.28,6.19,7.33,6.2a.89.89,0,0,1,.59,1.11A.88.88,0,0,1,101.65,101.48Z" transform="translate(-57.19 -57.26)"/><path class="cls-8" d="M265.67,267.57a.88.88,0,0,1-.84-.62h0c0-.06-1.7-5.39-6.21-7.33a.88.88,0,0,1,.7-1.62c5.27,2.27,7.12,8.18,7.2,8.43a.88.88,0,0,1-.59,1.1A.78.78,0,0,1,265.67,267.57Z" transform="translate(-57.19 -57.26)"/><path class="cls-8" d="M97.59,105.69a.76.76,0,0,1-.21,0c-.25-.06-6.26-1.6-8.8-6.74a.88.88,0,0,1,1.58-.78c2.18,4.41,7.59,5.8,7.65,5.81a.88.88,0,0,1-.22,1.74Z" transform="translate(-57.19 -57.26)"/><path class="cls-8" d="M270.1,263a.88.88,0,0,1-.83-.58c0-.07-2-5.29-6.58-7a.88.88,0,1,1,.61-1.65c5.38,2,7.54,7.79,7.63,8a.89.89,0,0,1-.53,1.13A.79.79,0,0,1,270.1,263Z" transform="translate(-57.19 -57.26)"/><path class="cls-8" d="M93.77,110.1H93.6c-.26,0-6.33-1.28-9.14-6.27a.89.89,0,0,1,.33-1.21A.9.9,0,0,1,86,103c2.41,4.29,7.88,5.39,7.94,5.4a.88.88,0,0,1-.17,1.75Z" transform="translate(-57.19 -57.26)"/><path class="cls-8" d="M274.27,258.15a.88.88,0,0,1-.81-.54h0c0-.05-2.26-5.18-6.94-6.63a.9.9,0,0,1-.58-1.11.88.88,0,0,1,1.11-.58c5.47,1.71,7.93,7.39,8,7.63a.89.89,0,0,1-.47,1.16A.87.87,0,0,1,274.27,258.15Z" transform="translate(-57.19 -57.26)"/><path class="cls-8" d="M90.18,114.71h-.12c-.26,0-6.4-.94-9.46-5.78a.88.88,0,0,1,1.49-1c2.63,4.16,8.16,5,8.21,5a.88.88,0,0,1-.12,1.76Z" transform="translate(-57.19 -57.26)"/><path class="cls-8" d="M278.19,253.12a.88.88,0,0,1-.79-.5c0-.06-2.53-5.06-7.28-6.27a.88.88,0,1,1,.44-1.71c5.55,1.42,8.31,7,8.42,7.21a.88.88,0,0,1-.4,1.18A.92.92,0,0,1,278.19,253.12Z" transform="translate(-57.19 -57.26)"/><path class="cls-8" d="M86.84,119.5h-.08c-.26,0-6.43-.61-9.75-5.28a.89.89,0,1,1,1.44-1c2.84,4,8.41,4.54,8.46,4.55a.88.88,0,0,1-.07,1.76Z" transform="translate(-57.19 -57.26)"/><path class="cls-8" d="M281.84,247.88a.87.87,0,0,1-.77-.45c-.05-.08-2.8-4.92-7.6-5.88a.88.88,0,1,1,.35-1.73c5.62,1.12,8.66,6.52,8.79,6.75a.88.88,0,0,1-.34,1.2A.86.86,0,0,1,281.84,247.88Z" transform="translate(-57.19 -57.26)"/><path class="cls-8" d="M83.75,124.46h0c-.26,0-6.46-.27-10-4.77a.88.88,0,1,1,1.38-1.09c3,3.84,8.63,4.09,8.69,4.09a.88.88,0,0,1,.85.91A.89.89,0,0,1,83.75,124.46Z" transform="translate(-57.19 -57.26)"/><path class="cls-8" d="M285.21,242.47a.88.88,0,0,1-.75-.42c0-.07-3-4.76-7.89-5.47a.88.88,0,1,1,.25-1.75c5.68.83,9,6.06,9.14,6.28a.89.89,0,0,1-.28,1.22A.92.92,0,0,1,285.21,242.47Z" transform="translate(-57.19 -57.26)"/><path class="cls-8" d="M80.86,129.57c-.79,0-6.57-.15-10.17-4.24A.88.88,0,0,1,72,124.17c3.24,3.68,8.83,3.63,8.89,3.63h0a.89.89,0,0,1,0,1.77Z" transform="translate(-57.19 -57.26)"/><path class="cls-8" d="M288.29,236.88a.86.86,0,0,1-.72-.38h0s-3.29-4.59-8.17-5.05a.88.88,0,0,1-.8-1,.89.89,0,0,1,1-.8c5.71.53,9.3,5.59,9.45,5.8a.88.88,0,0,1-.22,1.23A.85.85,0,0,1,288.29,236.88Z" transform="translate(-57.19 -57.26)"/><path class="cls-8" d="M77.8,134.84c-1.72,0-6.51-.33-9.82-3.71a.89.89,0,0,1,0-1.25.88.88,0,0,1,1.25,0c3.43,3.51,9,3.17,9.07,3.17a.87.87,0,0,1,.94.81.88.88,0,0,1-.81.95S78.16,134.84,77.8,134.84Z" transform="translate(-57.19 -57.26)"/><path class="cls-8" d="M291.07,231.14a.88.88,0,0,1-.69-.34h0s-3.52-4.42-8.42-4.62a.88.88,0,1,1,.07-1.76c5.73.23,9.58,5.09,9.74,5.29a.89.89,0,0,1-.15,1.24A.88.88,0,0,1,291.07,231.14Z" transform="translate(-57.19 -57.26)"/><path class="cls-8" d="M74.78,140.26c-2.12,0-6.17-.41-9.21-3.21a.88.88,0,0,1,1.2-1.3c3.61,3.32,9.17,2.7,9.22,2.69a.88.88,0,1,1,.22,1.75A12.4,12.4,0,0,1,74.78,140.26Z" transform="translate(-57.19 -57.26)"/><path class="cls-8" d="M293.55,225.26a.87.87,0,0,1-.66-.3h0s-3.7-4.17-8.55-4.17h-.11a.89.89,0,0,1,0-1.77h.13c5.67,0,9.71,4.58,9.88,4.78a.88.88,0,0,1-.67,1.46Z" transform="translate(-57.19 -57.26)"/><path class="cls-8" d="M72,145.84a13.34,13.34,0,0,1-8.48-2.74.9.9,0,0,1-.12-1.25.89.89,0,0,1,1.25-.11c3.79,3.14,9.29,2.2,9.35,2.2a.88.88,0,1,1,.31,1.73A13.83,13.83,0,0,1,72,145.84Z" transform="translate(-57.19 -57.26)"/><path class="cls-8" d="M295.72,219.26a.89.89,0,0,1-.63-.26h0s-4-4-8.86-3.72a.88.88,0,1,1-.11-1.76c5.71-.37,10.06,4.06,10.24,4.25a.88.88,0,0,1,0,1.25A.93.93,0,0,1,295.72,219.26Z" transform="translate(-57.19 -57.26)"/><path class="cls-8" d="M69.43,151.56a12.89,12.89,0,0,1-7.72-2.32.89.89,0,0,1-.18-1.24.88.88,0,0,1,1.23-.18c3.95,2.94,9.4,1.72,9.45,1.71a.88.88,0,0,1,.4,1.72A15,15,0,0,1,69.43,151.56Z" transform="translate(-57.19 -57.26)"/><path class="cls-8" d="M297.57,213.16a.88.88,0,0,1-.6-.24h0s-4.17-3.81-9-3.24a.89.89,0,0,1-1-.77.87.87,0,0,1,.78-1c5.7-.68,10.26,3.52,10.45,3.7a.89.89,0,0,1,0,1.25A.86.86,0,0,1,297.57,213.16Z" transform="translate(-57.19 -57.26)"/><path class="cls-8" d="M67.23,157.41a12.55,12.55,0,0,1-7-1.94.88.88,0,1,1,1-1.47c4.08,2.72,9.47,1.23,9.53,1.21a.88.88,0,0,1,.48,1.7A15.67,15.67,0,0,1,67.23,157.41Z" transform="translate(-57.19 -57.26)"/><path class="cls-8" d="M299.1,207a.85.85,0,0,1-.56-.21c-.05,0-4.37-3.59-9.2-2.76a.89.89,0,0,1-.3-1.75c5.66-1,10.43,3,10.63,3.16a.88.88,0,0,1-.57,1.56Z" transform="translate(-57.19 -57.26)"/><path class="cls-8" d="M65.38,163.36a12.18,12.18,0,0,1-6.24-1.59.88.88,0,1,1,.9-1.52c4.21,2.5,9.52.73,9.58.71a.88.88,0,1,1,.57,1.67A16,16,0,0,1,65.38,163.36Z" transform="translate(-57.19 -57.26)"/><path class="cls-8" d="M300.31,200.71a.85.85,0,0,1-.53-.18h0s-4.55-3.36-9.34-2.28a.89.89,0,0,1-1.05-.67.88.88,0,0,1,.67-1.06c5.59-1.26,10.57,2.44,10.78,2.6a.87.87,0,0,1,.17,1.23A.89.89,0,0,1,300.31,200.71Z" transform="translate(-57.19 -57.26)"/><path class="cls-8" d="M63.89,169.4a11.78,11.78,0,0,1-5.54-1.29.88.88,0,1,1,.82-1.56c4.34,2.27,9.55.23,9.6.21a.88.88,0,0,1,1.15.49.87.87,0,0,1-.49,1.14A15.78,15.78,0,0,1,63.89,169.4Z" transform="translate(-57.19 -57.26)"/><path class="cls-8" d="M301.18,194.39a.88.88,0,0,1-.49-.15h0c-.05,0-4.72-3.12-9.44-1.79a.89.89,0,0,1-.48-1.71c5.52-1.54,10.69,1.88,10.9,2a.89.89,0,0,1-.49,1.62Z" transform="translate(-57.19 -57.26)"/><path class="cls-8" d="M62.76,175.5a11.63,11.63,0,0,1-4.87-1,.88.88,0,1,1,.74-1.6c4.47,2.05,9.55-.27,9.6-.3a.89.89,0,0,1,1.17.43.87.87,0,0,1-.42,1.17A16,16,0,0,1,62.76,175.5Z" transform="translate(-57.19 -57.26)"/><path class="cls-8" d="M301.72,188a.89.89,0,0,1-.45-.12c-.06,0-4.88-2.87-9.52-1.3a.88.88,0,1,1-.57-1.67c5.43-1.84,10.77,1.32,11,1.45a.88.88,0,0,1-.46,1.64Z" transform="translate(-57.19 -57.26)"/><path class="cls-8" d="M62,181.66a11.51,11.51,0,0,1-4.21-.77.89.89,0,0,1,.65-1.65c4.56,1.81,9.53-.77,9.58-.79a.88.88,0,0,1,1.19.36.89.89,0,0,1-.36,1.2A16,16,0,0,1,62,181.66Z" transform="translate(-57.19 -57.26)"/><path class="cls-8" d="M301.93,181.66a.94.94,0,0,1-.42-.11c-.07,0-5-2.6-9.57-.79a.88.88,0,1,1-.65-1.64c5.33-2.12,10.82.75,11,.87a.89.89,0,0,1-.41,1.67Z" transform="translate(-57.19 -57.26)"/><path class="cls-8" d="M61.57,187.85a11.14,11.14,0,0,1-3.58-.57.89.89,0,0,1,.56-1.68c4.67,1.58,9.47-1.26,9.52-1.29a.88.88,0,1,1,.91,1.51A15.76,15.76,0,0,1,61.57,187.85Z" transform="translate(-57.19 -57.26)"/><path class="cls-8" d="M301.8,175.28a1,1,0,0,1-.37-.08h0c-.05,0-5.15-2.34-9.6-.3a.88.88,0,0,1-.74-1.6c5.21-2.39,10.85.19,11.09.3a.87.87,0,0,1,.42,1.17A.89.89,0,0,1,301.8,175.28Z" transform="translate(-57.19 -57.26)"/><path class="cls-8" d="M61.51,194.05a11.22,11.22,0,0,1-3-.4A.88.88,0,0,1,59,192c4.72,1.32,9.39-1.76,9.44-1.79a.88.88,0,0,1,1,1.46A15.63,15.63,0,0,1,61.51,194.05Z" transform="translate(-57.19 -57.26)"/><path class="cls-8" d="M291,169.16a.89.89,0,0,1-.79-.47.88.88,0,0,1,.38-1.19c5.07-2.66,10.84-.38,11.08-.28a.88.88,0,1,1-.66,1.63c-.06,0-5.27-2.06-9.6.21A.86.86,0,0,1,291,169.16Z" transform="translate(-57.19 -57.26)"/><path class="cls-8" d="M61.8,200.24a10.47,10.47,0,0,1-2.39-.26.88.88,0,0,1,.39-1.72c4.78,1.07,9.29-2.25,9.33-2.28a.88.88,0,0,1,1.24.17.9.9,0,0,1-.17,1.24A15.48,15.48,0,0,1,61.8,200.24Z" transform="translate(-57.19 -57.26)"/><path class="cls-8" d="M290.23,163.38a.89.89,0,0,1-.76-.44.88.88,0,0,1,.31-1.21c4.93-2.92,10.81-.94,11.06-.86a.88.88,0,0,1-.58,1.67c-.06,0-5.37-1.78-9.58.71A.81.81,0,0,1,290.23,163.38Z" transform="translate(-57.19 -57.26)"/><path class="cls-8" d="M62.43,206.41a10.09,10.09,0,0,1-1.8-.15.88.88,0,1,1,.29-1.74c4.86.83,9.16-2.73,9.2-2.77a.89.89,0,0,1,1.14,1.36A15.2,15.2,0,0,1,62.43,206.41Z" transform="translate(-57.19 -57.26)"/><path class="cls-8" d="M289.16,157.64a.89.89,0,0,1-.49-1.62c4.78-3.18,10.75-1.51,11-1.44a.87.87,0,0,1,.6,1.09.88.88,0,0,1-1.09.61c-.08,0-5.46-1.5-9.53,1.21A.88.88,0,0,1,289.16,157.64Z" transform="translate(-57.19 -57.26)"/><path class="cls-8" d="M63.4,212.54a10.26,10.26,0,0,1-1.23-.07.89.89,0,0,1,.2-1.76c4.87.57,9-3.2,9-3.24a.88.88,0,0,1,1.21,1.29C72.44,208.93,68.51,212.54,63.4,212.54Z" transform="translate(-57.19 -57.26)"/><path class="cls-8" d="M287.8,152a.86.86,0,0,1-.71-.36.88.88,0,0,1,.18-1.23c4.6-3.42,10.65-2.07,10.9-2a.87.87,0,0,1,.66,1.06.88.88,0,0,1-1.05.66c-.08,0-5.53-1.21-9.46,1.71A.92.92,0,0,1,287.8,152Z" transform="translate(-57.19 -57.26)"/><path class="cls-8" d="M64.7,218.61l-.67,0a.89.89,0,0,1-.83-.94.87.87,0,0,1,.94-.82c4.91.31,8.82-3.68,8.86-3.72a.88.88,0,0,1,1.27,1.23C74.09,214.52,70.09,218.61,64.7,218.61Z" transform="translate(-57.19 -57.26)"/><path class="cls-8" d="M286.13,146.36a.9.9,0,0,1-.68-.32.88.88,0,0,1,.12-1.24c4.41-3.66,10.53-2.63,10.78-2.58a.88.88,0,0,1-.3,1.74h0c-.06,0-5.58-.93-9.35,2.2A.88.88,0,0,1,286.13,146.36Z" transform="translate(-57.19 -57.26)"/><path class="cls-8" d="M66.33,224.6h-.12a.88.88,0,0,1-.88-.89.9.9,0,0,1,.9-.88h.1c4.87,0,8.51-4.13,8.55-4.17a.88.88,0,0,1,1.33,1.15C76,220,72,224.6,66.33,224.6Z" transform="translate(-57.19 -57.26)"/><path class="cls-8" d="M284.18,140.86a.9.9,0,0,1-.65-.28.88.88,0,0,1,.05-1.25c4.22-3.89,10.38-3.17,10.64-3.14a.88.88,0,0,1-.22,1.75c-.08,0-5.63-.63-9.22,2.69A.92.92,0,0,1,284.18,140.86Z" transform="translate(-57.19 -57.26)"/><path class="cls-8" d="M68.66,230.49a.88.88,0,0,1,0-1.76c4.92-.2,8.38-4.58,8.42-4.62a.88.88,0,1,1,1.39,1.09c-.16.2-4,5.06-9.74,5.29Z" transform="translate(-57.19 -57.26)"/><path class="cls-8" d="M281.94,135.47a.94.94,0,0,1-.62-.25.88.88,0,0,1,0-1.25c4-4.1,10.19-3.71,10.46-3.69a.88.88,0,0,1-.13,1.76h0c-.06,0-5.64-.34-9.07,3.16A.86.86,0,0,1,281.94,135.47Z" transform="translate(-57.19 -57.26)"/><path class="cls-8" d="M71.41,236.25a.89.89,0,0,1-.08-1.77c4.91-.45,8.14-5,8.17-5a.89.89,0,0,1,1.45,1c-.15.21-3.74,5.26-9.45,5.79Z" transform="translate(-57.19 -57.26)"/><path class="cls-8" d="M279.42,130.2a.88.88,0,0,1-.66-1.47c3.79-4.3,10-4.23,10.25-4.23a.88.88,0,0,1,.86.9.86.86,0,0,1-.89.87h0c-.06,0-5.66,0-8.89,3.63A.89.89,0,0,1,279.42,130.2Z" transform="translate(-57.19 -57.26)"/><path class="cls-8" d="M74.46,241.85a.89.89,0,0,1-.13-1.76c4.88-.71,7.87-5.42,7.9-5.47a.88.88,0,0,1,1.21-.28.89.89,0,0,1,.29,1.22c-.14.22-3.47,5.45-9.14,6.28Z" transform="translate(-57.19 -57.26)"/><path class="cls-8" d="M276.63,125.07a.9.9,0,0,1-.55-.19.89.89,0,0,1-.14-1.24c3.55-4.5,9.75-4.76,10-4.76a.88.88,0,1,1,.06,1.76h0c-.05,0-5.65.25-8.69,4.1A.87.87,0,0,1,276.63,125.07Z" transform="translate(-57.19 -57.26)"/><path class="cls-8" d="M77.8,247.29a.88.88,0,0,1-.17-1.75c4.8-1,7.56-5.83,7.59-5.88a.89.89,0,0,1,1.55.86c-.13.23-3.17,5.63-8.8,6.75Z" transform="translate(-57.19 -57.26)"/><path class="cls-8" d="M273.58,120.09a.91.91,0,0,1-.52-.16.88.88,0,0,1-.2-1.23c3.31-4.68,9.48-5.26,9.75-5.28a.88.88,0,0,1,.15,1.76h0c-.06,0-5.63.54-8.46,4.54A.91.91,0,0,1,273.58,120.09Z" transform="translate(-57.19 -57.26)"/><path class="cls-8" d="M81.42,252.54a.88.88,0,0,1-.86-.66.89.89,0,0,1,.64-1.08c4.77-1.21,7.25-6.21,7.28-6.26a.88.88,0,0,1,1.18-.41.87.87,0,0,1,.4,1.18c-.11.24-2.87,5.79-8.42,7.2Z" transform="translate(-57.19 -57.26)"/><path class="cls-8" d="M270.26,115.28a.9.9,0,0,1-.47-.13.89.89,0,0,1-.27-1.22c3.06-4.84,9.2-5.75,9.46-5.78a.88.88,0,1,1,.24,1.74h0c-.05,0-5.59.84-8.21,5A.87.87,0,0,1,270.26,115.28Z" transform="translate(-57.19 -57.26)"/><path class="cls-8" d="M85.31,257.6a.89.89,0,0,1-.27-1.73c4.68-1.46,6.92-6.58,6.94-6.63a.89.89,0,0,1,1.63.69c-.1.24-2.57,5.92-8,7.63A.82.82,0,0,1,85.31,257.6Z" transform="translate(-57.19 -57.26)"/><path class="cls-8" d="M266.7,110.65a.86.86,0,0,1-.43-.11.9.9,0,0,1-.34-1.2c2.81-5,8.89-6.22,9.15-6.27a.88.88,0,1,1,.33,1.73h0c-.05,0-5.53,1.13-7.94,5.4A.87.87,0,0,1,266.7,110.65Z" transform="translate(-57.19 -57.26)"/><path class="cls-8" d="M89.45,262.45a.88.88,0,0,1-.3-1.71c4.6-1.71,6.56-6.94,6.58-7a.88.88,0,0,1,1.66.61c-.09.24-2.25,6-7.63,8A.81.81,0,0,1,89.45,262.45Z" transform="translate(-57.19 -57.26)"/><path class="cls-8" d="M262.91,106.22a.86.86,0,0,1-.39-.09.89.89,0,0,1-.4-1.19c2.54-5.13,8.54-6.67,8.8-6.74a.89.89,0,0,1,.43,1.72h0c-.06,0-5.48,1.41-7.65,5.81A.89.89,0,0,1,262.91,106.22Z" transform="translate(-57.19 -57.26)"/><path class="cls-8" d="M93.85,267.07a.88.88,0,0,1-.35-1.69c4.52-1.95,6.19-7.27,6.21-7.33a.88.88,0,1,1,1.69.52c-.08.25-1.93,6.16-7.2,8.43A.84.84,0,0,1,93.85,267.07Z" transform="translate(-57.19 -57.26)"/><path class="cls-8" d="M258.88,102a.91.91,0,0,1-.35-.07.88.88,0,0,1-.46-1.16c2.27-5.26,8.19-7.11,8.44-7.19a.88.88,0,0,1,.52,1.69h0c-.06,0-5.4,1.7-7.34,6.2A.88.88,0,0,1,258.88,102Z" transform="translate(-57.19 -57.26)"/><path class="cls-8" d="M98.48,271.46a.89.89,0,0,1-.39-1.68c4.4-2.17,5.8-7.58,5.81-7.64a.89.89,0,0,1,1.72.43c-.06.25-1.61,6.26-6.75,8.8A.89.89,0,0,1,98.48,271.46Z" transform="translate(-57.19 -57.26)"/><path class="cls-8" d="M254.64,98a.8.8,0,0,1-.3-.06.88.88,0,0,1-.53-1.13c2-5.38,7.81-7.54,8.05-7.62a.89.89,0,0,1,1.14.52.91.91,0,0,1-.53,1.14h0c-.06,0-5.3,2-7,6.57A.88.88,0,0,1,254.64,98Z" transform="translate(-57.19 -57.26)"/><path class="cls-8" d="M103.34,275.6a.88.88,0,0,1-.43-1.65c4.29-2.41,5.39-7.88,5.4-7.94a.89.89,0,0,1,1-.7.9.9,0,0,1,.7,1c0,.26-1.28,6.33-6.28,9.14A1,1,0,0,1,103.34,275.6Z" transform="translate(-57.19 -57.26)"/><path class="cls-8" d="M250.2,94.18a.84.84,0,0,1-.27,0,.9.9,0,0,1-.58-1.11c1.71-5.47,7.4-7.93,7.64-8a.89.89,0,1,1,.69,1.63c-.07,0-5.18,2.26-6.64,6.93A.88.88,0,0,1,250.2,94.18Z" transform="translate(-57.19 -57.26)"/><path class="cls-8" d="M108.4,279.48a.88.88,0,0,1-.47-1.63c4.14-2.62,5-8.15,5-8.21a.88.88,0,1,1,1.75.25c0,.26-.94,6.39-5.78,9.45A.92.92,0,0,1,108.4,279.48Z" transform="translate(-57.19 -57.26)"/><path class="cls-8" d="M245.56,90.63a.83.83,0,0,1-.22,0,.89.89,0,0,1-.64-1.08c1.42-5.55,7-8.3,7.21-8.42a.89.89,0,0,1,.78,1.59h0c-.05,0-5.06,2.53-6.27,7.27A.9.9,0,0,1,245.56,90.63Z" transform="translate(-57.19 -57.26)"/><path class="cls-8" d="M113.67,283.09a.89.89,0,0,1-.51-1.61c4-2.84,4.54-8.39,4.54-8.45a.87.87,0,0,1,1-.8.88.88,0,0,1,.8.95c0,.26-.6,6.43-5.28,9.75A.9.9,0,0,1,113.67,283.09Z" transform="translate(-57.19 -57.26)"/><path class="cls-8" d="M240.74,87.32h-.17a.88.88,0,0,1-.69-1c1.12-5.62,6.53-8.66,6.75-8.79a.88.88,0,0,1,.86,1.54h0c-.05,0-4.92,2.79-5.88,7.59A.89.89,0,0,1,240.74,87.32Z" transform="translate(-57.19 -57.26)"/><path class="cls-8" d="M119.11,286.42a.89.89,0,0,1-.55-1.58c3.87-3,4.1-8.62,4.1-8.68a.88.88,0,1,1,1.76.06c0,.26-.26,6.45-4.76,10A.88.88,0,0,1,119.11,286.42Z" transform="translate(-57.19 -57.26)"/><path class="cls-8" d="M235.76,84.28h-.13a.88.88,0,0,1-.74-1c.83-5.67,6.06-9,6.28-9.12a.88.88,0,1,1,.94,1.49h0c-.05,0-4.77,3-5.48,7.89A.89.89,0,0,1,235.76,84.28Z" transform="translate(-57.19 -57.26)"/><path class="cls-8" d="M124.72,289.46a.87.87,0,0,1-.66-.3.89.89,0,0,1,.08-1.25c3.68-3.23,3.64-8.83,3.63-8.88a.89.89,0,0,1,.87-.9h0a.88.88,0,0,1,.88.87c0,.26.07,6.45-4.24,10.24A.84.84,0,0,1,124.72,289.46Z" transform="translate(-57.19 -57.26)"/><path class="cls-8" d="M230.62,81.49h-.08a.9.9,0,0,1-.8-1c.54-5.71,5.59-9.3,5.8-9.45a.89.89,0,0,1,1,1.45h0c-.05,0-4.6,3.28-5.06,8.16A.88.88,0,0,1,230.62,81.49Z" transform="translate(-57.19 -57.26)"/><path class="cls-8" d="M130.48,292.2a.86.86,0,0,1-.63-.27.87.87,0,0,1,0-1.24c3.52-3.44,3.17-9,3.16-9.06a.89.89,0,0,1,.82-.95.88.88,0,0,1,.94.82c0,.26.41,6.45-3.69,10.45A.86.86,0,0,1,130.48,292.2Z" transform="translate(-57.19 -57.26)"/><path class="cls-8" d="M225.35,79h0a.88.88,0,0,1-.84-.92c.23-5.72,5.09-9.57,5.29-9.73a.88.88,0,1,1,1.09,1.39h0s-4.42,3.52-4.62,8.41A.88.88,0,0,1,225.35,79Z" transform="translate(-57.19 -57.26)"/><path class="cls-8" d="M136.38,294.64a.88.88,0,0,1-.6-.24.87.87,0,0,1-.05-1.24c3.34-3.62,2.7-9.16,2.69-9.22a.88.88,0,1,1,1.75-.21c0,.26.75,6.41-3.14,10.62A.87.87,0,0,1,136.38,294.64Z" transform="translate(-57.19 -57.26)"/><path class="cls-8" d="M220,76.75a.88.88,0,0,1-.88-.87c-.07-5.73,4.58-9.83,4.78-10A.88.88,0,0,1,225,67.21h0s-4.24,3.75-4.18,8.65a.88.88,0,0,1-.87.89Z" transform="translate(-57.19 -57.26)"/><path class="cls-8" d="M142.4,296.76a.87.87,0,0,1-.68-1.44c3.14-3.79,2.21-9.29,2.2-9.34a.9.9,0,0,1,.72-1,.89.89,0,0,1,1,.72c.05.26,1.08,6.37-2.58,10.78A.89.89,0,0,1,142.4,296.76Z" transform="translate(-57.19 -57.26)"/><path class="cls-8" d="M214.44,74.8a.88.88,0,0,1-.88-.82c-.37-5.72,4.06-10.06,4.25-10.24A.88.88,0,0,1,219,65h0s-4,4-3.72,8.85a.88.88,0,0,1-.82.94Z" transform="translate(-57.19 -57.26)"/><path class="cls-8" d="M148.52,298.57a.88.88,0,0,1-.53-.17.89.89,0,0,1-.18-1.24c2.93-3.93,1.72-9.39,1.71-9.44a.88.88,0,1,1,1.72-.4c.06.25,1.41,6.3-2,10.9A.89.89,0,0,1,148.52,298.57Z" transform="translate(-57.19 -57.26)"/><path class="cls-8" d="M208.84,73.15a.88.88,0,0,1-.88-.78c-.67-5.69,3.53-10.25,3.71-10.44a.88.88,0,0,1,1.25,0,.89.89,0,0,1,0,1.25h0s-3.82,4.17-3.25,9a.87.87,0,0,1-.77,1Z" transform="translate(-57.19 -57.26)"/><path class="cls-8" d="M154.73,300.06a.89.89,0,0,1-.74-1.37c2.73-4.1,1.23-9.47,1.21-9.52a.9.9,0,0,1,.61-1.1.88.88,0,0,1,1.09.61c.07.25,1.74,6.22-1.44,11A.89.89,0,0,1,154.73,300.06Z" transform="translate(-57.19 -57.26)"/><path class="cls-8" d="M203.15,71.79a.89.89,0,0,1-.87-.73c-1-5.65,3-10.43,3.16-10.63a.9.9,0,0,1,1.25-.11.89.89,0,0,1,.1,1.25h0s-3.59,4.36-2.76,9.19a.89.89,0,0,1-.73,1Z" transform="translate(-57.19 -57.26)"/><path class="cls-8" d="M161,301.22a.84.84,0,0,1-.45-.13.89.89,0,0,1-.31-1.21c2.51-4.21.73-9.51.72-9.57a.88.88,0,0,1,.54-1.12.89.89,0,0,1,1.13.55c.08.24,2.06,6.12-.87,11.05A.89.89,0,0,1,161,301.22Z" transform="translate(-57.19 -57.26)"/><path class="cls-8" d="M197.41,70.73a.88.88,0,0,1-.86-.69c-1.26-5.59,2.44-10.57,2.59-10.77a.89.89,0,0,1,1.24-.18.88.88,0,0,1,.17,1.24h0s-3.36,4.54-2.28,9.32a.88.88,0,0,1-.67,1.06Z" transform="translate(-57.19 -57.26)"/><path class="cls-8" d="M167.33,302.05a1,1,0,0,1-.41-.1.89.89,0,0,1-.37-1.2c2.28-4.33.23-9.54.21-9.59a.88.88,0,0,1,1.64-.66c.1.24,2.38,6-.29,11.07A.88.88,0,0,1,167.33,302.05Z" transform="translate(-57.19 -57.26)"/><path class="cls-8" d="M191.62,70a.89.89,0,0,1-.86-.64c-1.54-5.52,1.89-10.68,2-10.9a.89.89,0,1,1,1.47,1c0,.07-3.12,4.72-1.79,9.43a.89.89,0,0,1-.62,1.09Z" transform="translate(-57.19 -57.26)"/><path class="cls-8" d="M173.69,302.54a.78.78,0,0,1-.36-.08.88.88,0,0,1-.44-1.17c2.05-4.45-.27-9.54-.29-9.59a.88.88,0,0,1,1.6-.75c.11.24,2.69,5.87.3,11.08A.89.89,0,0,1,173.69,302.54Z" transform="translate(-57.19 -57.26)"/><path class="cls-8" d="M185.79,69.52a.9.9,0,0,1-.84-.6c-1.83-5.43,1.32-10.77,1.46-11a.88.88,0,0,1,1.51.91c0,.07-2.86,4.88-1.29,9.51a.89.89,0,0,1-.56,1.12A.92.92,0,0,1,185.79,69.52Z" transform="translate(-57.19 -57.26)"/><path class="cls-8" d="M217.55,292.49a.87.87,0,0,1-.88-.88c0-4.85-4.44-6.93-4.63-7a.88.88,0,0,1,.73-1.61c.23.1,5.62,2.61,5.66,8.61a.88.88,0,0,1-.88.89Z" transform="translate(-57.19 -57.26)"/><path class="cls-8" d="M221.8,288.4a.88.88,0,0,1-.88-.77c-.47-3.56-5.69-6.3-5.74-6.32a.89.89,0,0,1,.81-1.58c.25.13,6.1,3.19,6.68,7.67a.88.88,0,0,1-.76,1Z" transform="translate(-57.19 -57.26)"/><path class="cls-8" d="M226.89,282.1a.88.88,0,0,1-.88-.79c-.13-1.16-4.14-2.65-7.81-3.31a.88.88,0,0,1-.71-1,.87.87,0,0,1,1-.71c2.09.37,8.92,1.83,9.26,4.86a.89.89,0,0,1-.78,1Z" transform="translate(-57.19 -57.26)"/><path class="cls-8" d="M229.62,276.05a.85.85,0,0,1-.56-.21c-2-1.62-6.38-1.88-7.92-1.85a.89.89,0,0,1,0-1.77c.25,0,6.21-.11,9.08,2.26a.88.88,0,0,1,.12,1.24A.86.86,0,0,1,229.62,276.05Z" transform="translate(-57.19 -57.26)"/><path class="cls-8" d="M232,270.31a.94.94,0,0,1-.5-.15c-1.4-1-6.14-.71-8.79-.33a.88.88,0,1,1-.25-1.75c.77-.11,7.61-1,10,.62a.88.88,0,0,1-.5,1.61Z" transform="translate(-57.19 -57.26)"/><path class="cls-8" d="M232.7,265.2a.86.86,0,0,1-.71-.36c-1-1.35-5.17-1.07-7.84-.44a.88.88,0,1,1-.4-1.72c.77-.18,7.61-1.7,9.67,1.12a.88.88,0,0,1-.2,1.23A.81.81,0,0,1,232.7,265.2Z" transform="translate(-57.19 -57.26)"/><path class="cls-8" d="M224.71,259.22a.89.89,0,0,1-.81-.55.87.87,0,0,1,.48-1.15c1.93-.8,8.4-3.22,10.33-.81a.89.89,0,1,1-1.38,1.11c-.75-.94-4.89-.07-8.28,1.33A1,1,0,0,1,224.71,259.22Z" transform="translate(-57.19 -57.26)"/><path class="cls-8" d="M224.71,253.72a.87.87,0,0,1-.75-.42.89.89,0,0,1,.29-1.22c1.65-1,7.19-4.14,9.47-2.69a.88.88,0,0,1,.28,1.22.89.89,0,0,1-1.22.27c-.92-.58-4.68.93-7.61,2.71A.84.84,0,0,1,224.71,253.72Z" transform="translate(-57.19 -57.26)"/><path class="cls-8" d="M223.19,249a.86.86,0,0,1-.65-.28.88.88,0,0,1,.05-1.25l6.18-5.67a.88.88,0,1,1,1.19,1.3l-6.17,5.67A.87.87,0,0,1,223.19,249Z" transform="translate(-57.19 -57.26)"/><path class="cls-8" d="M221.12,243.78a.88.88,0,0,1-.73-1.38c1.51-2.19,4.28-5.89,5.82-6a.88.88,0,1,1,.14,1.76c-.59.18-2.67,2.59-4.5,5.25A.89.89,0,0,1,221.12,243.78Z" transform="translate(-57.19 -57.26)"/><path class="cls-8" d="M216.37,240.6a.88.88,0,0,1-.55-.19.89.89,0,0,1-.14-1.24l5.27-6.58a.88.88,0,1,1,1.38,1.1l-5.27,6.58A.87.87,0,0,1,216.37,240.6Z" transform="translate(-57.19 -57.26)"/><path class="cls-8" d="M213.33,238.15a1,1,0,0,1-.33-.06.89.89,0,0,1-.48-1.16l3.58-8.8a.88.88,0,0,1,1.63.67l-3.58,8.8A.89.89,0,0,1,213.33,238.15Z" transform="translate(-57.19 -57.26)"/><path class="cls-8" d="M204.74,232.7h-.12a.89.89,0,0,1-.75-1l1.24-9a.88.88,0,1,1,1.75.24l-1.24,9.05A.89.89,0,0,1,204.74,232.7Z" transform="translate(-57.19 -57.26)"/><path class="cls-8" d="M198,230a.66.66,0,0,1-.23,0,.89.89,0,0,1-.62-1.09l2.15-7.66a.89.89,0,0,1,1.71.48l-2.15,7.66A.9.9,0,0,1,198,230Z" transform="translate(-57.19 -57.26)"/><path class="cls-8" d="M194.45,229.85l-.22,0c-.78-.2-1.39-.35-.3-9.67a.88.88,0,0,1,1.75.21,55.41,55.41,0,0,0-.53,8.07.86.86,0,0,1,.15.75A.87.87,0,0,1,194.45,229.85Z" transform="translate(-57.19 -57.26)"/><path class="cls-8" d="M187.61,228h-.08a.89.89,0,0,1-.81-1c.72-8.31,1.49-8.83,1.82-9a1,1,0,0,1,.86-.14.88.88,0,0,1,.59,1.1.82.82,0,0,1-.38.49,48.22,48.22,0,0,0-1.13,7.75A.88.88,0,0,1,187.61,228Z" transform="translate(-57.19 -57.26)"/><path class="cls-8" d="M181.07,225.85h0a.88.88,0,0,1-.85-.92c0-.25.29-6.29,2.89-9.42a.88.88,0,0,1,1.36,1.12C182.21,219.32,182,225,182,225A.88.88,0,0,1,181.07,225.85Z" transform="translate(-57.19 -57.26)"/><path class="cls-8" d="M174.66,223.4h-.09a.89.89,0,0,1-.79-1c0-.29.78-7,4.75-9a.88.88,0,1,1,.78,1.58c-2.58,1.27-3.6,5.91-3.77,7.59A.89.89,0,0,1,174.66,223.4Z" transform="translate(-57.19 -57.26)"/><path class="cls-8" d="M170.58,220.78a.88.88,0,0,1-.87-.79c0-.22-.53-5.44,3.52-8.73a.89.89,0,0,1,1.24.13.88.88,0,0,1-.13,1.24c-3.29,2.67-2.88,7.13-2.88,7.18a.88.88,0,0,1-.78,1Z" transform="translate(-57.19 -57.26)"/><path class="cls-8" d="M164.77,218.06a.88.88,0,0,1-.88-.88,12.63,12.63,0,0,1,4.15-8.59.88.88,0,0,1,1.25,0,.88.88,0,0,1,0,1.25,11,11,0,0,0-3.61,7.29.88.88,0,0,1-.87.9Z" transform="translate(-57.19 -57.26)"/><path class="cls-8" d="M160,215.55h0a.88.88,0,0,1-.88-.89,13,13,0,0,1,4.14-8.74.89.89,0,0,1,1.25.05.88.88,0,0,1-.05,1.25,11.31,11.31,0,0,0-3.57,7.46A.88.88,0,0,1,160,215.55Z" transform="translate(-57.19 -57.26)"/><path class="cls-8" d="M155.2,211.5a.84.84,0,0,1-.31-.05.88.88,0,0,1-.52-1.14,17.25,17.25,0,0,1,6-7.49.89.89,0,0,1,1.23.25.87.87,0,0,1-.25,1.22,15.48,15.48,0,0,0-5.31,6.64A.88.88,0,0,1,155.2,211.5Z" transform="translate(-57.19 -57.26)"/><path class="cls-8" d="M151.08,207.46a1,1,0,0,1-.34-.07.89.89,0,0,1-.48-1.15c.09-.22,2.21-5.23,7.59-6.35a.88.88,0,0,1,.36,1.73c-4.44.92-6.3,5.25-6.32,5.29A.89.89,0,0,1,151.08,207.46Z" transform="translate(-57.19 -57.26)"/><path class="cls-8" d="M147.66,201.13a.88.88,0,0,1-.51-1.61c.17-.12,4.3-3,7.94-3.47a.89.89,0,0,1,1,.77.88.88,0,0,1-.77,1c-3.2.41-7.11,3.14-7.15,3.17A.93.93,0,0,1,147.66,201.13Z" transform="translate(-57.19 -57.26)"/><path class="cls-8" d="M146.07,194.5a.88.88,0,0,1-.22-1.74c1.08-.29,6.6-1.67,8.79-.35a.88.88,0,0,1-.91,1.51c-1.14-.69-5-.09-7.43.55A.85.85,0,0,1,146.07,194.5Z" transform="translate(-57.19 -57.26)"/><path class="cls-8" d="M154.18,190.31a.86.86,0,0,1-.67-.32c-1-1.23-5.14-1.83-7.47-1.93a.88.88,0,1,1,.07-1.76c.7,0,6.87.33,8.75,2.55a.89.89,0,0,1-.11,1.25A.87.87,0,0,1,154.18,190.31Z" transform="translate(-57.19 -57.26)"/><path class="cls-8" d="M156.23,186.33a.89.89,0,0,1-.73-.39c-1-1.44-5.22-2.84-7.67-3.38a.88.88,0,0,1,.38-1.72c.72.15,7.06,1.61,8.75,4.11a.88.88,0,0,1-.23,1.23A.91.91,0,0,1,156.23,186.33Z" transform="translate(-57.19 -57.26)"/><path class="cls-8" d="M159.32,182.58a.89.89,0,0,1-.86-.69c-.34-.68-3.23-3-5.76-4.85a.89.89,0,0,1,1-1.44c4.16,3,6.34,5,6.47,6a.89.89,0,0,1-.76,1Z" transform="translate(-57.19 -57.26)"/><path class="cls-8" d="M163.74,179.22a.89.89,0,0,1-.86-.67c-.23-.94-3-3.58-5.4-5.48a.89.89,0,0,1-.15-1.24.88.88,0,0,1,1.24-.15c.92.72,5.54,4.45,6,6.45a.9.9,0,0,1-.65,1.07Z" transform="translate(-57.19 -57.26)"/><path class="cls-8" d="M168.89,176.43a.9.9,0,0,1-.83-.57c-.39-1.05-3.17-4.56-4.83-6.53a.88.88,0,0,1,1.35-1.14c.46.55,4.52,5.37,5.14,7.05a.87.87,0,0,1-.52,1.13A.81.81,0,0,1,168.89,176.43Z" transform="translate(-57.19 -57.26)"/><path class="cls-8" d="M201.8,160.64a.91.91,0,0,1-.52-.16l-7.67-5.5a.88.88,0,1,1,1-1.43l7.67,5.49a.88.88,0,0,1-.51,1.6Z" transform="translate(-57.19 -57.26)"/><path class="cls-8" d="M205.26,158a.9.9,0,0,1-.64-.27l-5.93-6.07a.88.88,0,0,1,0-1.25.89.89,0,0,1,1.25,0l5.94,6.08a.88.88,0,0,1,0,1.25A.85.85,0,0,1,205.26,158Z" transform="translate(-57.19 -57.26)"/><path class="cls-8" d="M209.67,155a.86.86,0,0,1-.56-.2l-6.87-5.62a.88.88,0,0,1,1.12-1.37l6.87,5.63a.89.89,0,0,1,.13,1.24A.9.9,0,0,1,209.67,155Z" transform="translate(-57.19 -57.26)"/><path class="cls-8" d="M213.65,150.41a.88.88,0,0,1-.49-.15l-7-4.65a.88.88,0,0,1-.25-1.22.89.89,0,0,1,1.23-.25l7,4.65a.88.88,0,0,1-.48,1.62Z" transform="translate(-57.19 -57.26)"/><path class="cls-8" d="M217.94,145.26a.92.92,0,0,1-.28,0l-8.26-2.72a.88.88,0,1,1,.55-1.68l8.26,2.72a.89.89,0,0,1-.27,1.73Z" transform="translate(-57.19 -57.26)"/><path class="cls-8" d="M220.12,139.29a.92.92,0,0,1-.39-.09c-.81-.41-5-1-7.79-1.23a.89.89,0,0,1-.79-1,.88.88,0,0,1,1-.79c1.16.11,7,.71,8.41,1.41a.88.88,0,0,1,.39,1.19A.86.86,0,0,1,220.12,139.29Z" transform="translate(-57.19 -57.26)"/><path class="cls-8" d="M221.37,133.82a.88.88,0,0,1-.44-.12c-1.9-1.1-6.52-.77-8.15-.55a.88.88,0,0,1-1-.75.89.89,0,0,1,.75-1c.66-.09,6.52-.83,9.28.78a.88.88,0,0,1,.32,1.2A.86.86,0,0,1,221.37,133.82Z" transform="translate(-57.19 -57.26)"/><path class="cls-8" d="M212.66,128.4a.88.88,0,0,1-.23-1.73c1.15-.33,7-1.88,9.38-.55a.88.88,0,0,1-.87,1.54c-1.25-.72-5.45,0-8,.71Z" transform="translate(-57.19 -57.26)"/><path class="cls-8" d="M212,124.87a.88.88,0,0,1-.49-1.62c1.94-1.3,6.65-4.29,8.3-4.09a.89.89,0,0,1-.23,1.76c-.76,0-4.29,1.93-7.09,3.8A.88.88,0,0,1,212,124.87Z" transform="translate(-57.19 -57.26)"/><path class="cls-8" d="M209.61,118.28a.9.9,0,0,1-.58-.21.89.89,0,0,1-.09-1.25c.19-.21,4.59-5.25,8.4-5.42a.89.89,0,0,1,.08,1.77c-2.53.1-6,3.51-7.14,4.81A.89.89,0,0,1,209.61,118.28Z" transform="translate(-57.19 -57.26)"/><path class="cls-8" d="M206.35,113.17a.88.88,0,0,1-.5-1.61c2.82-2,5.88-4.78,5.93-5.77a.88.88,0,0,1,.93-.84.89.89,0,0,1,.84.92c-.11,2.34-5.15,6-6.69,7.14A.93.93,0,0,1,206.35,113.17Z" transform="translate(-57.19 -57.26)"/><path class="cls-8" d="M202.27,109.94a.86.86,0,0,1-.41-.1.88.88,0,0,1-.37-1.19c1.58-3,4.57-8,6.82-7.59a.88.88,0,0,1-.3,1.74c-.77,0-3.14,3.22-5,6.67A.88.88,0,0,1,202.27,109.94Z" transform="translate(-57.19 -57.26)"/><path class="cls-8" d="M197.45,107.4a.84.84,0,0,1-.35-.07.89.89,0,0,1-.47-1.16c1.37-3.19,4-8.52,6.27-8.24a.87.87,0,0,1,.77,1,.89.89,0,0,1-1,.77c-.76.13-2.85,3.49-4.43,7.19A.89.89,0,0,1,197.45,107.4Z" transform="translate(-57.19 -57.26)"/><path class="cls-8" d="M193.53,105.73h-.12a.88.88,0,0,1-.76-1l1.09-8.06a.87.87,0,0,1,1-.76.89.89,0,0,1,.76,1L194.4,105A.88.88,0,0,1,193.53,105.73Z" transform="translate(-57.19 -57.26)"/><path class="cls-8" d="M188.25,104.92a.88.88,0,0,1-.88-.88v-8.7a.89.89,0,0,1,1.77,0V104A.89.89,0,0,1,188.25,104.92Z" transform="translate(-57.19 -57.26)"/><path class="cls-8" d="M182.73,104.48a.88.88,0,0,1-.88-.89V95.34a.88.88,0,0,1,1.76,0v8.25A.88.88,0,0,1,182.73,104.48Z" transform="translate(-57.19 -57.26)"/><path class="cls-9" d="M250.82,232s-5.74-.88-8.25-3.83c0,0-14.57,21.94-24.87,25.62s-35.48,11.92-35.48,22.08c0-10.16-25.18-18.4-35.49-22.08s-24.87-25.62-24.87-25.62c-2.51,2.95-8.25,3.83-8.25,3.83-13.84-13.25-3.09-47.11-3.09-47.11,3.68,6.48,29.3,27.38,29.3,27.38L131,222.47c5.59,6.92,15.74,9.42,20.31,10.75,10.75,4.41,18.4,5.15,18.7-4.56l4.71-116.6h15l4.7,116.6c.3,9.71,7.95,9,18.7,4.56,4.57-1.33,14.72-3.83,20.32-10.75l-8.83-10.16s25.61-20.9,29.29-27.38C253.91,184.93,264.66,218.79,250.82,232Z" transform="translate(-57.19 -57.26)"/><path class="cls-10" d="M249.05,227.66s6.19-.22,5.52-16.89-2.73-18.44-2.73-18.44l-21.78,20.32,5.88,9s-1.9,7.73-11.4,10.27l2.43,3.2s18.77-14.46,24.62-31.14C251.59,204,250.49,222,249.05,227.66Z" transform="translate(-57.19 -57.26)"/><path class="cls-11" d="M188.88,112.94l4.67,115.74c.17,5.67,2.79,8.54,7.77,8.54,3,0,6.84-1,12.1-3.17l1-.27c5-1.43,14.36-4.08,19.76-10.75l.46-.58-.48-.56-8.24-9.47c3.91-3.21,22.2-18.4,27.7-25.45,1.91,7,8,32.93-3.05,44.12-1.33-.26-5.4-1.23-7.28-3.45l-.76-.89-.65,1c-.15.21-14.53,21.73-24.44,25.27l-2,.7c-10.49,3.71-29,10.23-33.19,18.69-4.24-8.47-22.71-15-33.21-18.69l-2-.7c-9.91-3.54-24.29-25.06-24.44-25.27l-.65-1-.76.89c-1.88,2.22-6,3.19-7.28,3.45-11.07-11.19-5-37.12-3.05-44.12,5.5,7.05,23.8,22.24,27.71,25.45l-8.24,9.47-.49.56.47.58c5.39,6.67,14.74,9.33,19.76,10.75l.95.27c5.26,2.16,9.11,3.17,12.1,3.17,5,0,7.6-2.87,7.77-8.53l4.68-115.75h13.32m.85-.88h-15L170,228.66c-.17,5.53-2.73,7.68-6.89,7.68-3.14,0-7.19-1.22-11.81-3.12-4.57-1.33-14.72-3.83-20.31-10.75l8.83-10.16s-25.62-20.9-29.3-27.38c0,0-10.75,33.86,3.09,47.11,0,0,5.74-.88,8.25-3.83,0,0,14.57,21.94,24.87,25.62s35.49,11.92,35.49,22.08c0-10.16,25.17-18.4,35.48-22.08s24.87-25.62,24.87-25.62c2.51,2.95,8.25,3.83,8.25,3.83,13.84-13.25,3.09-47.11,3.09-47.11-3.68,6.48-29.29,27.38-29.29,27.38l8.83,10.16c-5.6,6.92-15.75,9.42-20.32,10.75-4.62,1.9-8.67,3.12-11.81,3.12-4.16,0-6.72-2.15-6.89-7.68l-4.7-116.6Z" transform="translate(-57.19 -57.26)"/><polygon class="cls-4" points="121.5 202.76 121.5 195.99 108.25 193.34 121.5 202.76"/><path class="cls-4" d="M144.23,243.52c-12.8-7.36-24.43-34.59-24.43-34.59-1.24,3.35.13,16.51.59,20.58a7.65,7.65,0,0,0,1.47-1.3s14.57,21.94,24.87,25.62,35.49,11.92,35.49,22.08a6.27,6.27,0,0,1,.23-1.66C179.29,259.75,156.06,250.32,144.23,243.52Z" transform="translate(-57.19 -57.26)"/><path class="cls-4" d="M193.55,257.51l-6.18-6.92V267.8c7.92-6.35,22.94-11.33,30.33-14,10.3-3.68,24.87-25.62,24.87-25.62a6.33,6.33,0,0,0,1,1,69.13,69.13,0,0,0,7.81-25C227.12,248.68,193.55,257.51,193.55,257.51Z" transform="translate(-57.19 -57.26)"/><path class="cls-4" d="M232.67,214.38l1.64,1.76c8.07-4.56,14.45-18.11,14.45-18.11Z" transform="translate(-57.19 -57.26)"/><path class="cls-4" d="M133.18,220l6.64-7.64s-7.63-6.22-15.15-12.92C126.28,206.32,131.67,217,133.18,220Z" transform="translate(-57.19 -57.26)"/><path class="cls-12" d="M194.44,228.79s0-.09,0-.13l-3-75c-3.45-1.62-7.94-4.15-8.48-6.6-.9-4,1,73.55,1,73.55S191.22,224.59,194.44,228.79Z" transform="translate(-57.19 -57.26)"/><path class="cls-13" d="M139.82,233.51s16.48,11.27,26.94,10.16c2.83-.11,7.51-2.21,6-14.46l2.32-91.53,7,3.77.24,91.07S178,249,166,247.32C162.29,247,142.62,237.38,139.82,233.51Z" transform="translate(-57.19 -57.26)"/><path class="cls-14" d="M114.68,193.65S116.23,218,118.1,225c0,0-.55,5.52-4.08,1.11S107.17,186.59,114.68,193.65Z" transform="translate(-57.19 -57.26)"/><path class="cls-2" d="M120.53,161.62c34.45-11.33,61.83,18.54,78.17,26.79,14.14,7.06,39-3.39,39-3.39l2.21-23.4c-20.17,8.55-29,8.83-62.13-13.26s-57.27-8.09-57.27-8.09v20.61" transform="translate(-57.19 -57.26)"/><path class="cls-3" d="M211,191.54A28.17,28.17,0,0,1,198.41,189a117.79,117.79,0,0,1-13.15-8.46c-16.18-11.35-38.36-26.89-64.52-18.29a.66.66,0,0,1-.84-.42.69.69,0,0,1,.08-.58.67.67,0,0,1-.11-.37V140.27a.68.68,0,0,1,.33-.58c.25-.14,6.28-3.58,16.5-4.32,9.38-.67,24.2.93,41.47,12.44,32.46,21.65,41.16,21.82,61.5,13.2a.66.66,0,0,1,.65.08.65.65,0,0,1,.26.59l-2.2,23.4a.66.66,0,0,1-.41.55C237.21,186,223.71,191.54,211,191.54Zm-74.83-33.12c19.89,0,36.81,11.87,49.88,21a117.85,117.85,0,0,0,13,8.37c12.78,6.39,35-2,38.1-3.26l2.06-21.9c-9.9,4.13-17,6-25.56,4.47-8.77-1.6-18.91-6.71-36.17-18.21C160.51,137.64,146,136,136.87,136.69a42.14,42.14,0,0,0-15.68,4v20.06A50.1,50.1,0,0,1,136.14,158.42Z" transform="translate(-57.19 -57.26)"/><polygon class="cls-4" points="117.22 80.42 133.9 88.49 132.85 77.38 116.61 77.38 117.22 80.42"/><path class="cls-15" d="M125.72,143.32v5.32l6-6.3a6.45,6.45,0,0,1,.74-.67,1.39,1.39,0,0,1,.81-.22,1.48,1.48,0,0,1,1.07.39,1.24,1.24,0,0,1,.41.95,1.87,1.87,0,0,1-.69,1.33l-3.74,3.54,4.31,6.17a8,8,0,0,1,.68,1.13,2.2,2.2,0,0,1,.23.93,1.15,1.15,0,0,1-.4.88,1.53,1.53,0,0,1-1.08.38,1.86,1.86,0,0,1-1-.28,2.28,2.28,0,0,1-.68-.73c-.19-.3-.35-.58-.5-.83l-3.63-5.59-2.52,2.42v3.13a2,2,0,0,1-.43,1.42,1.49,1.49,0,0,1-1.12.46,1.47,1.47,0,0,1-.75-.21,1.44,1.44,0,0,1-.56-.56,1.74,1.74,0,0,1-.18-.67q0-.39,0-1.11V143.32a2.09,2.09,0,0,1,.41-1.4,1.4,1.4,0,0,1,1.11-.47,1.48,1.48,0,0,1,1.12.46A2,2,0,0,1,125.72,143.32Z" transform="translate(-57.19 -57.26)"/><path class="cls-15" d="M232.67,180.53v-12a2,2,0,0,1,.45-1.4,1.56,1.56,0,0,1,1.17-.47,1.62,1.62,0,0,1,1.19.46,1.92,1.92,0,0,1,.46,1.41v12a1.91,1.91,0,0,1-.46,1.4,1.7,1.7,0,0,1-2.35,0A1.91,1.91,0,0,1,232.67,180.53Z" transform="translate(-57.19 -57.26)"/><path class="cls-15" d="M221,172.36v4.34h6.64v-4.34a2,2,0,0,1,.42-1.4,1.41,1.41,0,0,1,1.1-.47,1.49,1.49,0,0,1,1.12.46,2,2,0,0,1,.43,1.41v11.95a2,2,0,0,1-.43,1.41,1.47,1.47,0,0,1-1.12.46,1.4,1.4,0,0,1-1.11-.47,2,2,0,0,1-.41-1.4v-5.1H221v5.1a2,2,0,0,1-.43,1.41,1.47,1.47,0,0,1-1.12.46,1.4,1.4,0,0,1-1.11-.47,2.09,2.09,0,0,1-.41-1.4V172.36a2,2,0,0,1,.41-1.4,1.4,1.4,0,0,1,1.11-.47,1.48,1.48,0,0,1,1.12.46A2,2,0,0,1,221,172.36Z" transform="translate(-57.19 -57.26)"/><path class="cls-15" d="M217.6,182.13a4.07,4.07,0,0,1-.36,1.57,5.68,5.68,0,0,1-1.12,1.65,5.93,5.93,0,0,1-2,1.32,7,7,0,0,1-2.78.51,9.79,9.79,0,0,1-2.18-.23,6.15,6.15,0,0,1-1.79-.71,6,6,0,0,1-1.47-1.27,7.27,7.27,0,0,1-1-1.6,8,8,0,0,1-.64-1.88,10.5,10.5,0,0,1-.21-2.14,9.37,9.37,0,0,1,.53-3.28,6.91,6.91,0,0,1,1.53-2.48,6.75,6.75,0,0,1,2.33-1.57,7.67,7.67,0,0,1,2.84-.53,7.1,7.1,0,0,1,3.28.73,6,6,0,0,1,2.21,1.82,3.57,3.57,0,0,1,.76,2,1.32,1.32,0,0,1-.37.93,1.19,1.19,0,0,1-.9.41,1.25,1.25,0,0,1-.88-.28,3.79,3.79,0,0,1-.66-1,4.61,4.61,0,0,0-1.41-1.68,3.5,3.5,0,0,0-2-.56,3.61,3.61,0,0,0-3,1.44,6.51,6.51,0,0,0-1.13,4.09,7.57,7.57,0,0,0,.5,2.94,3.75,3.75,0,0,0,1.41,1.76,3.9,3.9,0,0,0,2.13.58,3.73,3.73,0,0,0,2.24-.66,4,4,0,0,0,1.38-1.93,3.32,3.32,0,0,1,.49-1,1.1,1.1,0,0,1,.93-.38,1.33,1.33,0,0,1,1.34,1.34Z" transform="translate(-57.19 -57.26)"/><path class="cls-15" d="M190.55,176.34V169a2,2,0,0,1,.42-1.39,1.4,1.4,0,0,1,1.11-.47,1.42,1.42,0,0,1,1.13.47,2,2,0,0,1,.42,1.39v7.47a6.81,6.81,0,0,0,.28,2.12,2.5,2.5,0,0,0,1,1.33,3.76,3.76,0,0,0,2,.47,3,3,0,0,0,2.55-1,4.72,4.72,0,0,0,.74-2.9V169a2,2,0,0,1,.42-1.4,1.38,1.38,0,0,1,1.1-.46,1.46,1.46,0,0,1,1.13.46,2,2,0,0,1,.43,1.4v7.3a10.79,10.79,0,0,1-.35,3,4.61,4.61,0,0,1-1.31,2.09,5,5,0,0,1-1.92,1.12,8.63,8.63,0,0,1-2.57.35,10.25,10.25,0,0,1-3-.38,4.5,4.5,0,0,1-3.23-3.19A10.28,10.28,0,0,1,190.55,176.34Z" transform="translate(-57.19 -57.26)"/><path class="cls-15" d="M190,168.05V171a3.28,3.28,0,0,1-.11.93,1.49,1.49,0,0,1-.42.62,4.09,4.09,0,0,1-.78.54,12.5,12.5,0,0,1-2.65,1.09,10.64,10.64,0,0,1-2.78.34,9,9,0,0,1-3.19-.54,6.65,6.65,0,0,1-4-4,10.17,10.17,0,0,1,0-6.51,6.62,6.62,0,0,1,1.55-2.49,6.78,6.78,0,0,1,2.49-1.57,9.67,9.67,0,0,1,3.34-.54,8.08,8.08,0,0,1,2.71.41,5.75,5.75,0,0,1,1.91,1,4.59,4.59,0,0,1,1.11,1.31,2.63,2.63,0,0,1,.37,1.23,1.3,1.3,0,0,1-.43,1,1.43,1.43,0,0,1-1,.41,1.39,1.39,0,0,1-.63-.15,1.36,1.36,0,0,1-.51-.44,11.08,11.08,0,0,0-1-1.34,3,3,0,0,0-1.06-.77,4,4,0,0,0-1.7-.31,4.65,4.65,0,0,0-1.91.37,4,4,0,0,0-1.43,1.06,4.79,4.79,0,0,0-.91,1.72,7.48,7.48,0,0,0-.32,2.24,6.15,6.15,0,0,0,1.23,4.11,4.26,4.26,0,0,0,3.42,1.44,6.93,6.93,0,0,0,2-.28,10.08,10.08,0,0,0,1.89-.8v-2.46h-2.38a2.66,2.66,0,0,1-1.3-.26.94.94,0,0,1-.44-.88,1.1,1.1,0,0,1,.37-.84,1.45,1.45,0,0,1,1-.33H188a4.26,4.26,0,0,1,1.09.12,1.24,1.24,0,0,1,.72.5A2.1,2.1,0,0,1,190,168.05Z" transform="translate(-57.19 -57.26)"/><path class="cls-15" d="M173.19,162.68l-.72-1.91H166.3l-.73,1.95a6.84,6.84,0,0,1-.72,1.54,1.16,1.16,0,0,1-1,.39,1.46,1.46,0,0,1-1-.42,1.27,1.27,0,0,1-.44-1,2.08,2.08,0,0,1,.1-.64c.07-.23.18-.53.34-.93l3.88-9.85c.11-.28.25-.62.4-1a5,5,0,0,1,.5-1,2,2,0,0,1,.69-.64,2.48,2.48,0,0,1,2.13,0,2.25,2.25,0,0,1,.7.63,5,5,0,0,1,.44.82c.12.3.28.69.46,1.18l4,9.79a4.92,4.92,0,0,1,.46,1.63,1.3,1.3,0,0,1-.44,1,1.4,1.4,0,0,1-1.06.44,1.32,1.32,0,0,1-.62-.13,1.13,1.13,0,0,1-.43-.35,2.87,2.87,0,0,1-.38-.68C173.4,163.18,173.29,162.91,173.19,162.68Zm-6.08-4.22h4.53l-2.29-6.26Z" transform="translate(-57.19 -57.26)"/><path class="cls-15" d="M144.37,154.36l-.72-1.91h-6.17l-.72,2a6.84,6.84,0,0,1-.73,1.53,1.14,1.14,0,0,1-1,.4,1.46,1.46,0,0,1-1-.42,1.32,1.32,0,0,1-.44-1,2.19,2.19,0,0,1,.1-.65c.07-.22.18-.52.34-.92l3.88-9.85c.11-.28.25-.62.4-1a5,5,0,0,1,.5-1,2.23,2.23,0,0,1,.69-.64,2.16,2.16,0,0,1,1.06-.24,2,2,0,0,1,1.77.87,4.32,4.32,0,0,1,.44.82c.13.3.28.69.46,1.18l4,9.79a5,5,0,0,1,.47,1.63,1.34,1.34,0,0,1-.44,1,1.44,1.44,0,0,1-1.07.44,1.35,1.35,0,0,1-.62-.13,1.21,1.21,0,0,1-.43-.35,3.28,3.28,0,0,1-.38-.68Zm-6.08-4.22h4.53l-2.29-6.26Z" transform="translate(-57.19 -57.26)"/><path class="cls-15" d="M159.87,156.59l-2.45-9.09-2.48,9.09c-.2.69-.35,1.19-.46,1.49a2.09,2.09,0,0,1-.6.81,1.73,1.73,0,0,1-1.13.35,1.9,1.9,0,0,1-.94-.21,1.62,1.62,0,0,1-.59-.6,3.53,3.53,0,0,1-.37-.92c-.1-.36-.19-.69-.26-1l-2.53-10.22a6.05,6.05,0,0,1-.23-1.35,1.34,1.34,0,0,1,.42-1,1.44,1.44,0,0,1,1-.4,1.16,1.16,0,0,1,1.13.54,6,6,0,0,1,.51,1.56l2,8.86,2.22-8.29a14.83,14.83,0,0,1,.45-1.45,2.11,2.11,0,0,1,.64-.86,1.88,1.88,0,0,1,1.21-.36,1.79,1.79,0,0,1,1.21.38,2.13,2.13,0,0,1,.59.82q.17.45.45,1.47l2.24,8.29,2-8.86q.15-.69.27-1.08a1.79,1.79,0,0,1,.45-.71,1.25,1.25,0,0,1,.92-.31,1.41,1.41,0,0,1,1,.4,1.36,1.36,0,0,1,.41,1,6.44,6.44,0,0,1-.22,1.35l-2.53,10.22a15.33,15.33,0,0,1-.43,1.52,2,2,0,0,1-.58.84,2,2,0,0,1-2.28,0,1.91,1.91,0,0,1-.59-.79C160.23,157.81,160.07,157.3,159.87,156.59Z" transform="translate(-57.19 -57.26)"/><path class="cls-7" d="M201.49,231a51.57,51.57,0,0,1,12.56,6.84c6,4.58,9.52,9.94,10.44,16l8.67-4.21c-1.81-7.24-6.34-13.72-13.44-19.13A61.35,61.35,0,0,0,204,222" transform="translate(-57.19 -57.26)"/><path class="cls-8" d="M223.88,254.94l-.16-1c-.89-5.82-4.3-11-10.14-15.47a50.62,50.62,0,0,0-12.36-6.72l.55-1.45a52.06,52.06,0,0,1,12.75,6.94c5.83,4.44,9.37,9.63,10.55,15.45l7.18-3.49c-1.88-6.87-6.25-13-13-18.09a60.77,60.77,0,0,0-15.47-8.31l.53-1.45a62.62,62.62,0,0,1,15.88,8.53c7.23,5.5,11.85,12.08,13.72,19.55l.15.61Z" transform="translate(-57.19 -57.26)"/><path class="cls-6" d="M239.12,159.76s4.74,0,2.76,7.34C241.88,167.1,241.1,161,239.12,159.76Z" transform="translate(-57.19 -57.26)"/><path class="cls-16" d="M199.15,97.54A17.17,17.17,0,1,1,182,80.37,17.17,17.17,0,0,1,199.15,97.54ZM182,89.42a8.12,8.12,0,1,0,8.11,8.12A8.12,8.12,0,0,0,182,89.42Z" transform="translate(-57.19 -57.26)"/><path class="cls-11" d="M182,115.15a17.61,17.61,0,1,1,17.61-17.61A17.63,17.63,0,0,1,182,115.15Zm0-34.34A16.73,16.73,0,1,0,198.7,97.54,16.75,16.75,0,0,0,182,80.81Zm0,25.29a8.56,8.56,0,1,1,8.55-8.56A8.57,8.57,0,0,1,182,106.1Zm0-16.23a7.67,7.67,0,1,0,7.67,7.67A7.69,7.69,0,0,0,182,89.87Z" transform="translate(-57.19 -57.26)"/><path class="cls-17" d="M221.38,125.74c0,5.61-17.7,10.16-39.53,10.16s-39.53-4.55-39.53-10.16c0-2.32,3-4.47,8.17-6.18,7.22-2.42,18.58-4,31.36-4C203.68,115.58,221.38,120.13,221.38,125.74Z" transform="translate(-57.19 -57.26)"/><path class="cls-17" d="M160.83,117.4s-9.93,7-3.14,16.24" transform="translate(-57.19 -57.26)"/><path class="cls-18" d="M157.69,134.53a.89.89,0,0,1-.71-.36,11.25,11.25,0,0,1-2.42-8.65c.84-5.3,5.56-8.7,5.76-8.84a.87.87,0,0,1,1.23.21.88.88,0,0,1-.21,1.23h0s-4.32,3.13-5,7.69a9.57,9.57,0,0,0,2.1,7.31.88.88,0,0,1-.19,1.23A.86.86,0,0,1,157.69,134.53Z" transform="translate(-57.19 -57.26)"/><path class="cls-17" d="M203.59,134.09s11.32-5.72,1.56-16.69" transform="translate(-57.19 -57.26)"/><path class="cls-18" d="M203.59,135a.9.9,0,0,1-.79-.48.89.89,0,0,1,.39-1.19c.06,0,4.18-2.18,4.92-6.15.53-2.79-.69-5.87-3.62-9.17a.88.88,0,0,1,1.32-1.17c3.32,3.73,4.68,7.32,4,10.68-.92,4.84-5.66,7.28-5.86,7.39A.93.93,0,0,1,203.59,135Z" transform="translate(-57.19 -57.26)"/><path class="cls-19" d="M219.2,129.08c-10.28,3.32-16.45,3.22-16.45,3.22-35.84,4-56.53-2.8-56.53-6.78s7.95-6.17,7.95-6.17l2.66-1.47a56.41,56.41,0,0,0-6.34,1.68c-5.13,1.71-8.17,3.86-8.17,6.18,0,5.61,17.7,10.16,39.53,10.16C199.14,135.9,213.83,133.05,219.2,129.08Z" transform="translate(-57.19 -57.26)"/><path class="cls-7" d="M181.26,104.12h.49c6.83-.08,14.4,1,20.35,5l4.32-8.18a36,36,0,0,0-3.71-2,48.18,48.18,0,0,0-21.07-4.09h-.38a4.64,4.64,0,1,0,0,9.27Z" transform="translate(-57.19 -57.26)"/><path class="cls-8" d="M202.38,110.25l-.71-.48c-5-3.34-11.67-5-19.91-4.88h-.5a5.41,5.41,0,1,1,0-10.82h.38A48.88,48.88,0,0,1,203,98.23a35,35,0,0,1,3.8,2.07l.61.38Zm-19.93-6.91c7.85,0,14.36,1.57,19.36,4.68l3.59-6.79c-1-.58-2-1.12-3-1.6a47.27,47.27,0,0,0-20.73-4h-.38a3.87,3.87,0,0,0,0,7.73h1.19Z" transform="translate(-57.19 -57.26)"/><path class="cls-7" d="M198.24,106.85s.31-5.77,4-7.94" transform="translate(-57.19 -57.26)"/><path class="cls-8" d="M199,106.9l-1.55-.09c0-.25.38-6.22,4.41-8.56l.78,1.33C199.35,101.51,199,106.84,199,106.9Z" transform="translate(-57.19 -57.26)"/><path class="cls-7" d="M193.26,105.33s2.57-7.26,3.16-8.55" transform="translate(-57.19 -57.26)"/><path class="cls-8" d="M194,105.59l-1.46-.51c.11-.3,2.59-7.32,3.19-8.62l1.4.65C196.56,98.35,194,105.52,194,105.59Z" transform="translate(-57.19 -57.26)"/><path class="cls-7" d="M188.84,104.51s3.42-7.52,2.41-9" transform="translate(-57.19 -57.26)"/><path class="cls-8" d="M189.54,104.83l-1.41-.64c1.7-3.73,2.86-7.58,2.48-8.25l1.28-.87C193,96.73,190.62,102.45,189.54,104.83Z" transform="translate(-57.19 -57.26)"/><path class="cls-7" d="M185.27,104.06s.59-7,1.9-8.72" transform="translate(-57.19 -57.26)"/><path class="cls-8" d="M186,104.12,184.5,104c.06-.74.65-7.31,2.05-9.12l1.23.95C186.93,96.91,186.26,101.49,186,104.12Z" transform="translate(-57.19 -57.26)"/><line class="cls-7" x1="124.07" y1="46.87" x2="124.46" y2="37.59"/><rect class="cls-8" x="176.81" y="98.71" width="9.29" height="1.55" transform="translate(17.37 219.42) rotate(-87.63)"/><path class="cls-7" d="M215.65,239s5.83-4.49,7-6.16" transform="translate(-57.19 -57.26)"/><path class="cls-8" d="M216.13,239.65l-.95-1.23c1.59-1.23,5.92-4.7,6.81-6l1.27.87C222.08,235,216.73,239.18,216.13,239.65Z" transform="translate(-57.19 -57.26)"/><path class="cls-7" d="M219.39,242.42a39.7,39.7,0,0,0,6.89-5.81" transform="translate(-57.19 -57.26)"/><path class="cls-8" d="M219.81,243.07l-.85-1.29a39.16,39.16,0,0,0,6.73-5.67l1.17,1A39.75,39.75,0,0,1,219.81,243.07Z" transform="translate(-57.19 -57.26)"/><path class="cls-7" d="M221.51,245.77s5.29-1.53,7.86-5" transform="translate(-57.19 -57.26)"/><path class="cls-8" d="M221.72,246.51l-.43-1.48c.05,0,5.08-1.51,7.46-4.69l1.24.93C227.29,244.87,222,246.45,221.72,246.51Z" transform="translate(-57.19 -57.26)"/><line class="cls-2" x1="63.34" y1="103.99" x2="73.8" y2="105.47"/><path class="cls-3" d="M131,163.38h-.1l-10.45-1.48a.65.65,0,0,1-.56-.74.66.66,0,0,1,.74-.57l10.46,1.48a.66.66,0,0,1-.09,1.31Z" transform="translate(-57.19 -57.26)"/><path class="cls-7" d="M223.19,249.08s5.44-1.1,8.2-4.19" transform="translate(-57.19 -57.26)"/><path class="cls-8" d="M223.34,249.84l-.3-1.52c.05,0,5.22-1.09,7.77-3.95l1.15,1C229.07,248.65,223.58,249.79,223.34,249.84Z" transform="translate(-57.19 -57.26)"/><path class="cls-6" d="M120.66,166.41s6.74-7.73,20.65-5.41L135,174.14" transform="translate(-57.19 -57.26)"/><path class="cls-7" d="M217.94,229.11a18.46,18.46,0,0,1-5.53,7.32" transform="translate(-57.19 -57.26)"/><path class="cls-8" d="M212.9,237l-1-1.19a17.92,17.92,0,0,0,5.3-7l1.46.5A19.12,19.12,0,0,1,212.9,237Z" transform="translate(-57.19 -57.26)"/><path class="cls-20" d="M213.33,226.28" transform="translate(-57.19 -57.26)"/><path class="cls-8" d="M207.24,234.44a.89.89,0,0,1-.52-1.6c4.5-3.3,5-7,5-7.06a.89.89,0,0,1,1-.77.88.88,0,0,1,.77,1c0,.18-.61,4.51-5.71,8.27A.93.93,0,0,1,207.24,234.44Z" transform="translate(-57.19 -57.26)"/><path class="cls-7" d="M207.24,223.29a25,25,0,0,1-4,8.41" transform="translate(-57.19 -57.26)"/><path class="cls-8" d="M203.87,232.19l-1.19-1a24.36,24.36,0,0,0,3.81-8.11l1.5.38A25.63,25.63,0,0,1,203.87,232.19Z" transform="translate(-57.19 -57.26)"/></g></g></svg>